<?xml version="1.0" encoding="UTF-8" standalone="no"?>
    <svg
      xmlns="http://www.w3.org/2000/svg"
      width="744.469"
      height="252.854"
      version="1.1"
      viewBox="0 0 196.974 66.901"
    >
      <defs>
        <filter width="1.049" height="1.143" x="-0.024" y="-0.072">
          <feGaussianBlur result="blur" stdDeviation="2 2"></feGaussianBlur>
        </filter>
      </defs>
      <g stroke="none" transform="translate(-6.817 -110.18)">
        <path class="batLogoPath"
          fill="#000"
          d="M6.817 110.305l66.132-.125c1.773 13.632 11.775 14.676 21.923 15.497 2.216.326 2.741-1.039 3.213-2.457l1.89-10.583 1.767 7.192c2.131-.492 4.925-.421 6.926-.01l1.701-7.182 2.079 10.772c.181 1.915 1.425 2.502 3.024 2.646 12.285-.287 20.634-4.338 21.355-15.686l66.964-.064c-22.06 8.592-36.804 19.88-30.3 38.996-27.654-3.149-59.869-.311-68.414 27.78-6.79-30.87-50.334-29.63-68.602-28.158 5.04-13.726.412-26.899-29.658-38.618z"
        ></path>
      </g>
    </svg>
